<?xml version="1.0" encoding="iso-8859-1"?>
<!-- Generator: Adobe Illustrator 19.0.0, SVG Export Plug-In . SVG Version: 6.00 Build 0)  -->
<svg version="1.1" id="Capa_1" xmlns="http://www.w3.org/2000/svg" xmlns:xlink="http://www.w3.org/1999/xlink" x="0px" y="0px"
	 viewBox="0 0 512.018 512.018" style="enable-background:new 0 0 512.018 512.018;" xml:space="preserve">
<g>
	<g>
		<g>
			<path d="M202.971,337.929h47.817c19.257,0.064,37.095,10.143,47.086,26.606l0.823,1.371c6.485,10.889,7.727,24.117,3.383,36.023
				h5.211c2.95,0.013,5.883-0.45,8.686-1.371l112.549-37.577c-2.725-8.254-9.87-14.268-18.469-15.543
				c-4.488-0.652-7.806-4.517-7.771-9.051v-0.823c-0.176-8.177-3.973-15.854-10.365-20.957s-14.719-7.105-22.732-5.466
				c-4.061,0.836-8.18-1.149-10.057-4.846c-10.112-19.882-30.54-32.394-52.846-32.366c-4.023-0.021-8.037,0.377-11.977,1.189
				c-2.79,0.557-5.683-0.183-7.863-2.011c-2.131-1.851-3.28-4.588-3.109-7.406c0-0.274,0.091-1.189,0.091-1.371
				c-0.094-5.816-2.987-11.229-7.771-14.537c10.283-39.356,31.376-75.049,60.891-103.04c-4.357-4.545-8.134-9.612-11.245-15.085
				c19.02-18.818,40.339-35.16,63.451-48.64c4.445-2.404,9.998-0.771,12.434,3.657c2.403,4.446,0.77,9.998-3.657,12.434
				c-22.24,13.266-42.727,29.269-60.983,47.634c0.183,0.274,0.457,0.457,0.64,0.731c16.024,16.422,38.344,25.15,61.257,23.954
				c18.381-0.789,35.463-9.698,46.629-24.32c30.629-40.32,55.771-117.394,64.183-145.371c-8.229-0.64-20.754-1.371-35.657-1.371
				c-41.417,0-100.846,5.76-135.863,35.383c-14.513,12.529-23.103,30.573-23.68,49.737c-0.689,16.144,3.21,32.152,11.246,46.171
				c-33.569,31.367-57.19,71.901-67.931,116.571c-4.25,2.05-7.554,5.648-9.234,10.057c-0.992,2.552-3.07,4.53-5.669,5.394
				c-2.594,0.9-5.457,0.563-7.771-0.914c-20.384-12.996-47.373-7.775-61.44,11.886c-2.583,3.575-7.346,4.804-11.337,2.926
				c-4.865-2.394-10.212-3.645-15.634-3.657c-16.993,0.058-31.716,11.791-35.566,28.343c16.759,2.132,32.607,8.838,45.806,19.383
				C169.721,332.176,186.094,337.913,202.971,337.929z M287.543,297.518c12.685-8.355,29.497-6.636,40.229,4.114
				c4.945,4.861,8.129,11.231,9.051,18.103c0.705,4.967-2.721,9.575-7.68,10.331c-0.457,0-0.914,0.091-1.371,0.091
				c-4.543-0.032-8.385-3.369-9.051-7.863c-0.363-2.951-1.717-5.69-3.84-7.771c-4.632-4.576-11.829-5.299-17.28-1.737
				c-4.216,2.753-9.864,1.58-12.633-2.625C282.197,305.956,283.349,300.303,287.543,297.518z M183.497,299.529
				c3.076-14.88,16.165-25.565,31.36-25.6c6.927-0.022,13.671,2.226,19.2,6.4c2.613,1.96,3.982,5.165,3.592,8.408
				c-0.391,3.243-2.482,6.031-5.486,7.314c-3.004,1.283-6.464,0.866-9.077-1.094c-2.36-1.807-5.256-2.773-8.229-2.743
				c-6.519-0.005-12.14,4.583-13.44,10.971c-0.882,4.249-4.62,7.3-8.96,7.314c-0.613-0.016-1.224-0.077-1.829-0.183
				C185.685,309.3,182.496,304.476,183.497,299.529z"/>
			<path d="M41.143,301.358H22.857C10.234,301.358,0,311.591,0,324.215v164.571c0,12.624,10.234,22.857,22.857,22.857h18.286
				C53.767,511.643,64,501.41,64,488.786V324.215C64,311.591,53.767,301.358,41.143,301.358z"/>
			<path d="M508.8,367.095c-4.069-5.52-11.221-7.806-17.737-5.669l-46.629,15.543c-1.557,1.33-3.53,2.074-5.577,2.103
				c-0.183,0-0.274-0.091-0.457-0.091l-116.663,38.857c-4.656,1.566-9.534,2.368-14.446,2.377h-81.189
				c-14.447-0.035-28.578,4.23-40.594,12.251l-6.766,4.48c-2.711,1.797-6.175,2.01-9.086,0.561s-4.828-4.342-5.029-7.589
				s1.346-6.353,4.058-8.149l6.674-4.48c15.014-10.044,32.679-15.391,50.743-15.36H281.6c5.814-7.769,6.356-18.281,1.371-26.606
				l-0.823-1.371c-6.629-10.993-18.523-17.721-31.36-17.737h-47.817c-21.005-0.022-41.379-7.179-57.783-20.297
				c-13.196-10.521-29.569-16.258-46.446-16.274H81.829c0.243,1.513,0.395,3.04,0.457,4.571v164.571
				c-0.046,4.686-0.912,9.327-2.56,13.714h224.731c10.057,0.005,19.923-2.746,28.526-7.954l171.337-104.32
				c3.864-2.321,6.557-6.178,7.406-10.606C512.587,375.219,511.522,370.659,508.8,367.095z"/>
			<path d="M297.783,109.266c-1.648-8.119-2.293-16.41-1.92-24.686c0.49-11.727,3.254-23.247,8.137-33.92
				c-17.58-4.464-35.749-6.161-53.851-5.029c6.441,19.573,15.845,38.043,27.886,54.766
				C283.071,106.007,290.244,109.228,297.783,109.266z"/>
		</g>
	</g>
</g>
<g>
</g>
<g>
</g>
<g>
</g>
<g>
</g>
<g>
</g>
<g>
</g>
<g>
</g>
<g>
</g>
<g>
</g>
<g>
</g>
<g>
</g>
<g>
</g>
<g>
</g>
<g>
</g>
<g>
</g>
</svg>
